<?xml version="1.0" encoding="utf-8"?>
<!-- Generator: Adobe Illustrator 28.0.0, SVG Export Plug-In . SVG Version: 6.00 Build 0)  -->
<svg version="1.1" id="Layer_1" xmlns="http://www.w3.org/2000/svg" xmlns:xlink="http://www.w3.org/1999/xlink" x="0px" y="0px"
	 viewBox="0 0 595.28 620" style="enable-background:new 0 0 595.28 620;" xml:space="preserve">
<style type="text/css">
	.st0{fill:#B11CAB;}
	.st1{fill:#E17FD2;}
</style>
<g>
	<g>
		<path class="st0" d="M178.93,387.94h-8.73v-13.39c-7.71,8.93-17.05,13.39-28.02,13.39c-10.02,0-18.61-3.73-25.78-11.19
			c-7.17-7.46-10.76-16.29-10.76-26.48c0-10.46,3.66-19.36,10.96-26.69c7.31-7.33,15.84-10.99,25.58-10.99
			c11.37,0,20.71,4.47,28.02,13.4v-47.6h8.73V387.94z M170.2,350.27c0-7.76-2.7-14.51-8.09-20.26c-5.39-5.75-12.07-8.62-20.03-8.62
			c-7.42,0-13.96,2.81-19.62,8.42c-5.67,5.61-8.5,12.43-8.5,20.47c0,7.76,2.73,14.51,8.19,20.26c5.46,5.75,12.1,8.62,19.93,8.62
			c7.55,0,14.13-2.8,19.72-8.41C167.4,365.13,170.2,358.3,170.2,350.27z"/>
		<path class="st0" d="M260.34,354.67h-64.16c0.11,4.47,2.98,9.67,3.25,10.08c4.06,5.9,7.92,9.67,11.57,11.31
			c4.33,2.06,8.52,3.09,12.59,3.09c3.38,0,7.14-0.88,11.27-2.65c4.13-1.76,6.93-3.53,8.43-5.3l5.68,5.86
			c-6.9,7.26-15.36,10.88-25.38,10.88c-10.02,0-18.61-3.73-25.78-11.19c-7.17-7.46-10.76-16.29-10.76-26.48
			c0-10.46,3.65-19.36,10.96-26.69c7.31-7.33,15.83-10.99,25.58-10.99c4.6,0,10.35,0.61,16.85,4c4.71,2.45,9.72,5.91,13.92,12.43
			c4.19,6.52,5.98,12.75,5.98,17.65V354.67z M251.4,345.87c-1.35-7.47-4.44-13.65-10.12-18.36c-5.28-4.15-11.47-6.13-17.69-6.13
			c-6.09,0-11.77,2.08-17.05,6.23c-5.69,4.7-9.2,10.79-10.56,18.26H251.4z"/>
		<path class="st0" d="M339.71,350.27c0,10.46-3.66,19.36-10.96,26.68c-7.31,7.33-15.9,10.99-25.78,10.99
			c-11.1,0-20.37-4.46-27.81-13.39v62.95h-8.73V312.6h8.73v13.4c7.99-8.93,17.26-13.4,27.81-13.4c10.15,0,18.81,3.73,25.98,11.2
			C336.12,331.26,339.71,340.09,339.71,350.27z M331.39,350.27c0-7.76-2.7-14.51-8.09-20.26c-5.4-5.75-12.07-8.62-20.03-8.62
			c-7.41,0-13.96,2.81-19.62,8.42c-5.67,5.61-8.49,12.43-8.49,20.47c0,7.76,2.73,14.51,8.19,20.26c5.46,5.75,12.1,8.62,19.93,8.62
			c7.55,0,14.13-2.8,19.72-8.41C328.58,365.13,331.39,358.3,331.39,350.27z"/>
		<path class="st0" d="M377.91,387.94h-8.32V278.39h8.32V387.94z"/>
		<path class="st0" d="M462.53,403.39c0,1.25-0.68,4.04-2.03,8.37c-2.57,8.23-7.51,14.72-14.82,19.47
			c-6.23,4.18-12.86,6.28-19.9,6.28c-4.87,0-10.42-1.33-16.65-3.98c-5.01-2.23-9.61-6.7-13.81-13.39
			c-4.06-6.28-6.09-11.86-6.09-16.74v-3.56h8.32c0.27,8.65,3.39,15.77,9.37,21.35c5.43,5.02,11.75,7.53,18.95,7.53
			c6.66,0,12.7-2.3,18.13-6.91c6.25-5.16,9.64-11.86,10.19-20.09v-27.16c-7.77,9.07-17.16,13.6-28.19,13.6
			c-8.99,0-17.23-3.36-24.72-10.08c-8.04-7.14-12.05-15.46-12.05-24.97v-40.5h8.32v40.6c0.13,2.8,1.52,6.63,4.16,11.51
			c2.64,4.89,6.46,8.72,11.47,11.51c3.66,2.09,7.85,3.14,12.59,3.14c3.25,0,7.51-1.04,12.79-3.14c3.79-1.39,7.37-4.81,10.76-10.25
			c3.11-5.02,4.74-9.35,4.87-12.98V312.6h8.32V403.39z"/>
	</g>
	<g>
		<path class="st1" d="M232.48,191.2c-5.56,0.42-8.11-1.34-8.11-1.34s3.22,3.86,8.78,2.92c5.56-0.94,9.12-9.66,6.31-22.48
			C239.46,170.3,240.58,190.45,232.48,191.2z"/>
		<path class="st1" d="M210.26,201.18c-0.24-3.16-1.8-2.81-4.32-8.07c-2.51-5.27-0.3-5.46,2.66-10.94c2.96-5.48-3.83-8.69-5.6-10.35
			c-1.77-1.66-1.45-3.58,3.34-5.63c4.79-2.06,1.74-6.43,1.74-6.43c0,0.22,0.28,1.14,0.02,2.16c-2.55,0.64-6.34,0.51-9.25-3.47
			c-4.62-10.16,4.86-12.89,8.95-13.52c4.09-0.62,5.26,0.98,5.27,2.11c0,1.13,0.39,3.4,2.64,3.89c2.24,0.49,4.44-1.26,5.88-2.22
			c1.44-0.95,1.32-1.56,8.2-0.41c6.88,1.15,6.95,4.96,7.39,7.11c0.44,2.15,4.75,5.69,5.71,7.39c0.96,1.7-2.63,5.16-5.6,4.59
			c-2.98-0.56-7.76-1.44-10.41,0.07c-2.66,1.52-0.78,7.16-1.42,8.51c-0.64,1.35-5.69,1.14-6.62,2.1c-0.93,0.96,0.02,4.09,1.35,6.09
			c1.33,2-1.1,3.12-1.91,5.12c-0.81,2.01,2.74,3.36,3.19,5.06c0.45,1.7-6.05,3.42-5.41,6.52c0.64,3.1,6.05,0.58,7.37,2.04
			c1.32,1.47-2.11,4.52-2.11,4.52c2.05-0.83,2.83-1.13,3.7-2.37c1.19-1.7,0.87-4.62-3.15-4.3c-4.02,0.33-3.83-0.24-3.83-0.24
			c-0.39-1.89,5.14-3.81,5.25-5.78c0.07-1.3-1.61-2.84-2.26-3.53c-0.65-0.69-1.37-1.19-0.33-2.08c1.05-0.89,2.21-3.66,2.04-4.52
			c-0.18-0.86-2.74-3.89-2.05-4.99c0.7-1.1,3.78-1,5.97-1.81c2.18-0.82,0.41-6.47,1.15-7.84c0.74-1.37-0.06-1.77,7.42-0.72
			c7.47,1.05,9.54-3.84,9.54-3.84c0.51-1.22,0.75-3.8-0.87-5.32c-3.05-2.88-3.74-4.04-4.96-8.1c-1.22-4.06-6.19-4.75-11.13-6.05
			c-4.94-1.3-8.04,1.96-8.92,2.51c-0.89,0.55-3.49,2.79-4.12-2.5c-0.63-5.3-10.09-1.69-11.24-1.37c-1.16,0.33-9.5,3.01-7.18,12.09
			c3.44,8.68,10.4,5.93,11.74,5.31c-0.28,1-1.1,2.11-3.26,2.78c-4.42,1.37-5.54,3.87-5.38,5.18c0.17,1.31,0.82,2.53,4.55,5.72
			c5.34,4.08,0.02,7.56-1.35,11.34c-1.37,3.79,1.96,7.05,2.64,8.36c0.68,1.31,4.54,5.19,3.23,7.72c-3.06,6.03,0.86,7.15,0.86,7.15
			C205.69,206.31,210.5,204.34,210.26,201.18z"/>
		<path class="st1" d="M252.64,221.06c2.84-3.59-0.54-7.11-1.76-8.06c-1.22-0.95-5.03-2.9-7.45-4.65c-3.25-2.34-4.94-5.27-4.94-5.27
			c-0.91,5.27,9.66,10.79,9.66,10.79s2.36,0.57,3.28,3.31c1.19,3.52-7.95,10.06-7.95,10.06c0.58-0.1,1.24-0.3,1.94-0.59
			c-0.01,0.01-0.02,0.02-0.02,0.02s1.66,4.85,0.57,6.9c-1.54,2.88-0.9,12.44,0.73,17.08c0,0-1.49-9.17,0.07-13.18
			c1.56-4.01,1.17-9.75,0.23-11.57c-0.02,0-0.03,0-0.05,0C248.86,224.85,250.93,223.22,252.64,221.06z"/>
		<path class="st1" d="M219.94,209.54c0,0-0.63,2.65-1.77,5.38c-0.85,2.04-3.82,6.24-4.22,7.32c-0.4,1.07-0.84,5.5,2.67,6.91
			c3.51,1.41,8.89,1.6,10.74,1c0,0-9.75-1.69-11.17-4.22c-1.17-2.08-0.05-3.82-0.05-3.82S222.9,212.77,219.94,209.54z"/>
		<path class="st1" d="M217.47,263.06c5.71-12.99-5.03-31.07-5.03-31.07s6.85,16.77,1.44,33.45c-9.53,19.74,0.1,27.86,0.1,27.86
			C209.65,286.63,211.76,276.05,217.47,263.06z"/>
		<path class="st1" d="M205.02,198.91c-15.61-2.09-1.49,31.63,0.54,38.19c2.03,6.55,1.59,21.56,0.11,29.06
			c-1.44,7.35-2.55,21.89-2.55,21.89c0.43,0.08,5.04-27.61,5.63-34.55c0.89-10.54-3.91-23.24-7.66-39
			C197.34,198.73,205.02,198.91,205.02,198.91z"/>
		<path class="st1" d="M244.95,193.93c0,0,8.37,1.59,10.49,14.63c1.73,10.65,2.54,20.44,3.53,26.34l1.49-2.35
			C257.46,222.71,259.6,192.98,244.95,193.93z"/>
		<path class="st1" d="M275.41,219.76c7.89-3.5,17.67,16.52,34.18,28.51c12.62,9.17,15.57,7.42,28.23,16.11
			c15.61,10.72,22.66,10.5,22.66,10.5c-4.51-1.01-21.12-12.93-25.61-14.93c-4.49-2-28.1-14.36-40.82-29.94
			c-12.72-15.58-13.64-13.46-19.43-11.88c-5.79,1.57-41.98,58.44-41.98,58.44C240.15,272.34,267.52,223.26,275.41,219.76z"/>
		<path class="st1" d="M280.86,242.21c3.23,4.59,15.09,17.79,31.91,19.61c16.51,1.79,18.69,7.97,18.69,7.97
			c0.53-1.86,2.31-5.32-14.86-9.51c-23.13-3.38-31.75-16.7-33.99-19.87c-2.23-3.17-4.24-4.35-7.41,1.45
			c-3.88,7.1-7.4,34.01-7.4,34.01C269.21,271.29,275.94,235.21,280.86,242.21z"/>
		<path class="st1" d="M241.88,300.31c-13.03,1.89-19.87-1.1-25.46-3.94c0,0,6.38,8.43,24.58,6.12c18.21-2.3,23.6-17.84,25.54-23.13
			C266.55,279.37,259.07,297.81,241.88,300.31z"/>
		<path class="st1" d="M349.48,276.74c-7.61-4.77-12.8-1.09-15.07-0.55c-2.27,0.53-2.63-2.07-2.76-3.52c0,0-3.14,5.41,1.7,5.77
			c4.84,0.37,6.54-5.39,15.96-0.04c6.09,3.46,13.02,1.35,13.93,0.01C363.25,278.41,354.44,279.85,349.48,276.74z"/>
		<path class="st1" d="M317.1,284.39c-1.38-1.82-10.52-13.07-17.74-20.1l-5.34-3.24c7.84,10.93,10.37,10.13,18.39,20.66
			c9.89,12.99,20.02,17.04,20.02,17.04C330.44,297.65,321.63,290.36,317.1,284.39z"/>
		<path class="st1" d="M306.91,287.87c1.03-1.47,3.65-4.01-9.64-11.76c-11.07-5.05-17.76-13.32-20.96-19.15l-0.96,2.97
			c3.63,6.11,9.35,12.96,18.18,16.58C307.02,282.03,306.91,287.87,306.91,287.87z"/>
		<path class="st1" d="M319.32,300.31c-4.77-5.6-10.13-3.81-12.14-3.9c-2.01-0.09-1.53-2.28-1.19-3.48c0,0-4.19,3.65-0.36,5.05
			c3.84,1.4,6.97-2.86,13.06,3.62c3.93,4.19,10.23,4.07,11.38,3.2C330.07,304.81,322.44,303.96,319.32,300.31z"/>
		<path class="st1" d="M197.79,295.16c-8.18,0.99-11.52,5.69-12.22,7.78c0,0,5.78-5.02,10.65-5.55c6.43-0.69,7.1-5.14,6.96-6.89
			C203.18,290.51,201.78,294.68,197.79,295.16z"/>
		<path class="st1" d="M244.2,168.24c0,0-1.41,2.32,1.26,3.02c2.66,0.7,2.93,1.62,2.07,2.54c-0.86,0.92-4.33,2.91-2.47,5.39
			c1.86,2.48,3.05,2.44,1.97,5.16c-1.08,2.72-1.93,2.65-1.9,4.2c0.03,1.56,2.7,2.21,0.94,4.35c0,0,2.03-0.79,0.1-3.54
			c-0.83-1.15,1.04-3.29,1.33-3.97c0.29-0.68,1.91-2.48,0.99-4.24c-0.92-1.76-3.94-3.12-1.29-5.44c1.83-1.79,2.12-2.43,2.14-3.08
			c0.02-0.65-0.7-1.79-3.13-2.18C243.77,170.08,244.23,168.46,244.2,168.24z"/>
	</g>
	<g>
		<path class="st0" d="M478.15,293.92c1.93,0,3.81,0.51,5.65,1.53c1.84,1.02,3.27,2.48,4.29,4.38c1.03,1.9,1.54,3.88,1.54,5.94
			c0,2.04-0.51,4-1.52,5.89c-1.01,1.89-2.43,3.35-4.25,4.39c-1.82,1.04-3.73,1.56-5.72,1.56c-1.99,0-3.9-0.52-5.72-1.56
			c-1.82-1.04-3.24-2.5-4.26-4.39c-1.02-1.89-1.52-3.85-1.52-5.89c0-2.06,0.51-4.04,1.55-5.94c1.03-1.9,2.47-3.36,4.3-4.38
			C474.34,294.43,476.22,293.92,478.15,293.92z M478.15,295.89c-1.62,0-3.19,0.43-4.72,1.28c-1.53,0.85-2.72,2.07-3.59,3.66
			c-0.86,1.59-1.29,3.24-1.29,4.96c0,1.71,0.43,3.34,1.27,4.91c0.85,1.57,2.03,2.79,3.56,3.66c1.52,0.88,3.11,1.31,4.77,1.31
			c1.66,0,3.24-0.44,4.77-1.31c1.52-0.87,2.71-2.09,3.55-3.66c0.84-1.57,1.26-3.2,1.26-4.91c0-1.72-0.43-3.37-1.29-4.96
			c-0.86-1.59-2.05-2.81-3.59-3.66C481.32,296.31,479.75,295.89,478.15,295.89z M473.11,312.33v-12.75h4.25
			c1.45,0,2.51,0.12,3.15,0.35c0.65,0.24,1.17,0.65,1.55,1.23c0.39,0.59,0.58,1.21,0.58,1.87c0,0.93-0.32,1.74-0.97,2.43
			c-0.64,0.69-1.5,1.08-2.57,1.16c0.44,0.19,0.79,0.41,1.05,0.67c0.5,0.5,1.11,1.35,1.83,2.53l1.51,2.5h-2.44l-1.1-2.01
			c-0.87-1.58-1.56-2.57-2.09-2.97c-0.37-0.29-0.9-0.44-1.6-0.44h-1.17v5.42H473.11z M475.1,305.15h2.42c1.16,0,1.95-0.18,2.37-0.53
			c0.42-0.36,0.63-0.83,0.63-1.42c0-0.38-0.1-0.71-0.3-1.01c-0.2-0.3-0.49-0.52-0.85-0.67c-0.36-0.15-1.03-0.22-2-0.22h-2.27V305.15
			z"/>
	</g>
	<g>
		<path class="st0" d="M358.67,387.94h-8.32l0-75.34h8.32V387.94z"/>
		<rect x="349.91" y="295.71" class="st1" width="8.66" height="8.66"/>
	</g>
</g>
</svg>
