<?xml version="1.0" encoding="utf-8"?>
<!-- Generator: Adobe Illustrator 28.0.0, SVG Export Plug-In . SVG Version: 6.00 Build 0)  -->
<svg version="1.1" id="Capa_1" xmlns="http://www.w3.org/2000/svg" xmlns:xlink="http://www.w3.org/1999/xlink" x="0px" y="0px"
	 viewBox="0 0 58.7 28.92" style="enable-background:new 0 0 58.7 28.92;" xml:space="preserve">
<style type="text/css">
	.st0{fill:#E17FD2;}
	.st1{fill:#B11CAB;}
</style>
<g>
	<path class="st0" d="M8.15,10.13c-0.69,0.05-1-0.17-1-0.17s0.4,0.48,1.09,0.36c0.69-0.12,1.13-1.19,0.78-2.78
		C9.01,7.54,9.15,10.03,8.15,10.13z"/>
	<path class="st0" d="M5.4,11.36c-0.03-0.39-0.22-0.35-0.53-1C4.56,9.71,4.83,9.69,5.2,9.01C5.56,8.33,4.72,7.93,4.5,7.73
		c-0.22-0.2-0.18-0.44,0.41-0.7c0.59-0.25,0.22-0.8,0.22-0.8c0,0.03,0.04,0.14,0,0.27C4.82,6.58,4.35,6.57,3.99,6.07
		C3.42,4.82,4.59,4.48,5.1,4.4C5.6,4.32,5.75,4.52,5.75,4.66c0,0.14,0.05,0.42,0.33,0.48C6.35,5.2,6.62,4.99,6.8,4.87
		c0.18-0.12,0.16-0.19,1.01-0.05C8.67,4.96,8.68,5.43,8.73,5.7c0.05,0.27,0.59,0.7,0.71,0.91c0.12,0.21-0.32,0.64-0.69,0.57
		C8.38,7.11,7.78,7,7.46,7.19c-0.33,0.19-0.1,0.89-0.18,1.05C7.2,8.41,6.58,8.38,6.46,8.5c-0.12,0.12,0,0.51,0.17,0.75
		C6.79,9.5,6.49,9.64,6.39,9.89c-0.1,0.25,0.34,0.42,0.39,0.63c0.06,0.21-0.75,0.42-0.67,0.81c0.08,0.38,0.75,0.07,0.91,0.25
		c0.16,0.18-0.26,0.56-0.26,0.56c0.25-0.1,0.35-0.14,0.46-0.29c0.15-0.21,0.11-0.57-0.39-0.53c-0.5,0.04-0.47-0.03-0.47-0.03
		C6.31,11.05,7,10.81,7.01,10.56c0.01-0.16-0.2-0.35-0.28-0.44c-0.08-0.09-0.17-0.15-0.04-0.26c0.13-0.11,0.27-0.45,0.25-0.56
		C6.92,9.2,6.6,8.83,6.69,8.69c0.09-0.14,0.47-0.12,0.74-0.22c0.27-0.1,0.05-0.8,0.14-0.97c0.09-0.17-0.01-0.22,0.92-0.09
		c0.92,0.13,1.18-0.47,1.18-0.47c0.06-0.15,0.09-0.47-0.11-0.66c-0.38-0.36-0.46-0.5-0.61-1C8.8,4.77,8.18,4.69,7.57,4.53
		c-0.61-0.16-0.99,0.24-1.1,0.31C6.36,4.91,6.04,5.18,5.96,4.53C5.88,3.87,4.71,4.32,4.57,4.36C4.42,4.4,3.39,4.73,3.68,5.85
		C4.1,6.93,4.97,6.59,5.13,6.51C5.1,6.63,4.99,6.77,4.73,6.85C4.18,7.02,4.04,7.33,4.06,7.49c0.02,0.16,0.1,0.31,0.56,0.71
		c0.66,0.5,0,0.93-0.17,1.4c-0.17,0.47,0.24,0.87,0.33,1.03c0.08,0.16,0.56,0.64,0.4,0.96c-0.38,0.75,0.11,0.88,0.11,0.88
		C4.84,11.99,5.43,11.75,5.4,11.36z"/>
	<path class="st0" d="M10.64,13.82c0.35-0.44-0.07-0.88-0.22-1c-0.15-0.12-0.62-0.36-0.92-0.58c-0.4-0.29-0.61-0.65-0.61-0.65
		c-0.11,0.65,1.2,1.33,1.2,1.33s0.29,0.07,0.41,0.41c0.15,0.44-0.98,1.24-0.98,1.24c0.07-0.01,0.15-0.04,0.24-0.07c0,0,0,0,0,0
		s0.21,0.6,0.07,0.85c-0.19,0.36-0.11,1.54,0.09,2.11c0,0-0.18-1.13,0.01-1.63c0.19-0.5,0.14-1.21,0.03-1.43c0,0,0,0-0.01,0
		C10.18,14.29,10.43,14.09,10.64,13.82z"/>
	<path class="st0" d="M6.6,12.4c0,0-0.08,0.33-0.22,0.67c-0.11,0.25-0.47,0.77-0.52,0.91c-0.05,0.13-0.1,0.68,0.33,0.86
		c0.43,0.17,1.1,0.2,1.33,0.12c0,0-1.21-0.21-1.38-0.52c-0.14-0.26-0.01-0.47-0.01-0.47S6.96,12.79,6.6,12.4z"/>
	<path class="st0" d="M6.29,19.02c0.71-1.61-0.62-3.84-0.62-3.84s0.85,2.08,0.18,4.14c-1.18,2.44,0.01,3.45,0.01,3.45
		C5.33,21.93,5.59,20.62,6.29,19.02z"/>
	<path class="st0" d="M4.75,11.08c-1.93-0.26-0.18,3.91,0.07,4.72c0.25,0.81,0.2,2.67,0.01,3.6c-0.18,0.91-0.32,2.71-0.32,2.71
		c0.05,0.01,0.62-3.42,0.7-4.27c0.11-1.3-0.48-2.88-0.95-4.82C3.8,11.06,4.75,11.08,4.75,11.08z"/>
	<path class="st0" d="M9.69,10.46c0,0,1.04,0.2,1.3,1.81c0.21,1.32,0.31,2.53,0.44,3.26l0.18-0.29
		C11.24,14.02,11.5,10.35,9.69,10.46z"/>
	<path class="st0" d="M13.46,13.66c0.98-0.43,2.19,2.04,4.23,3.53c1.56,1.13,1.93,0.92,3.49,1.99c1.93,1.33,2.8,1.3,2.8,1.3
		c-0.56-0.12-2.61-1.6-3.17-1.85c-0.56-0.25-3.48-1.78-5.05-3.7c-1.57-1.93-1.69-1.66-2.4-1.47c-0.72,0.19-5.19,7.23-5.19,7.23
		C9.1,20.16,12.48,14.09,13.46,13.66z"/>
	<path class="st0" d="M14.13,16.44c0.4,0.57,1.87,2.2,3.95,2.43c2.04,0.22,2.31,0.99,2.31,0.99c0.07-0.23,0.29-0.66-1.84-1.18
		c-2.86-0.42-3.93-2.07-4.2-2.46c-0.28-0.39-0.52-0.54-0.92,0.18c-0.48,0.88-0.92,4.21-0.92,4.21
		C12.69,20.03,13.53,15.57,14.13,16.44z"/>
	<path class="st0" d="M9.31,23.62c-1.61,0.23-2.46-0.14-3.15-0.49c0,0,0.79,1.04,3.04,0.76c2.25-0.29,2.92-2.21,3.16-2.86
		C12.36,21.03,11.44,23.32,9.31,23.62z"/>
	<path class="st0" d="M22.62,20.71c-0.94-0.59-1.58-0.13-1.86-0.07c-0.28,0.07-0.33-0.26-0.34-0.44c0,0-0.39,0.67,0.21,0.71
		c0.6,0.05,0.81-0.67,1.97-0.01c0.75,0.43,1.61,0.17,1.72,0C24.33,20.91,23.24,21.09,22.62,20.71z"/>
	<path class="st0" d="M18.62,21.65c-0.17-0.23-1.3-1.62-2.19-2.49l-0.66-0.4c0.97,1.35,1.28,1.25,2.27,2.56
		c1.22,1.61,2.48,2.11,2.48,2.11C20.27,23.3,19.18,22.39,18.62,21.65z"/>
	<path class="st0" d="M17.36,22.09c0.13-0.18,0.45-0.5-1.19-1.46c-1.37-0.62-2.2-1.65-2.59-2.37l-0.12,0.37
		c0.45,0.76,1.16,1.6,2.25,2.05C17.37,21.36,17.36,22.09,17.36,22.09z"/>
	<path class="st0" d="M18.89,23.62c-0.59-0.69-1.25-0.47-1.5-0.48c-0.25-0.01-0.19-0.28-0.15-0.43c0,0-0.52,0.45-0.04,0.63
		c0.47,0.17,0.86-0.35,1.62,0.45c0.49,0.52,1.27,0.5,1.41,0.4C20.22,24.18,19.28,24.08,18.89,23.62z"/>
	<path class="st0" d="M3.86,22.99c-1.01,0.12-1.43,0.7-1.51,0.96c0,0,0.71-0.62,1.32-0.69c0.8-0.09,0.88-0.64,0.86-0.85
		C4.52,22.41,4.35,22.93,3.86,22.99z"/>
	<path class="st0" d="M9.6,7.29c0,0-0.17,0.29,0.16,0.37c0.33,0.09,0.36,0.2,0.26,0.31C9.9,8.09,9.48,8.33,9.71,8.64
		c0.23,0.31,0.38,0.3,0.24,0.64C9.82,9.62,9.71,9.61,9.71,9.8c0,0.19,0.33,0.27,0.12,0.54c0,0,0.25-0.1,0.01-0.44
		c-0.1-0.14,0.13-0.41,0.17-0.49c0.04-0.08,0.24-0.31,0.12-0.52C10.01,8.67,9.64,8.5,9.97,8.21c0.23-0.22,0.26-0.3,0.27-0.38
		c0-0.08-0.09-0.22-0.39-0.27C9.55,7.51,9.6,7.31,9.6,7.29z"/>
</g>
<g>
	<path class="st1" d="M28.78,16.06H28.1V15c-0.61,0.7-1.35,1.06-2.21,1.06c-0.79,0-1.47-0.29-2.03-0.88
		C23.29,14.58,23,13.89,23,13.08c0-0.83,0.29-1.53,0.86-2.1c0.58-0.58,1.25-0.87,2.02-0.87c0.9,0,1.63,0.35,2.21,1.06V7.41h0.69
		V16.06z M28.1,13.08c0-0.61-0.21-1.14-0.64-1.6c-0.43-0.45-0.95-0.68-1.58-0.68c-0.59,0-1.1,0.22-1.55,0.66
		c-0.45,0.44-0.67,0.98-0.67,1.61c0,0.61,0.22,1.14,0.65,1.6c0.43,0.45,0.95,0.68,1.57,0.68c0.6,0,1.11-0.22,1.56-0.66
		C27.87,14.26,28.1,13.72,28.1,13.08z"/>
	<path class="st1" d="M35.21,13.43h-5.06c0.01,0.35,0.23,0.76,0.26,0.8c0.32,0.47,0.62,0.76,0.91,0.89
		c0.34,0.16,0.67,0.24,0.99,0.24c0.27,0,0.56-0.07,0.89-0.21c0.33-0.14,0.55-0.28,0.66-0.42l0.45,0.46c-0.54,0.57-1.21,0.86-2,0.86
		c-0.79,0-1.47-0.29-2.03-0.88c-0.57-0.59-0.85-1.28-0.85-2.09c0-0.83,0.29-1.53,0.86-2.1c0.58-0.58,1.25-0.87,2.02-0.87
		c0.36,0,0.82,0.05,1.33,0.32c0.37,0.19,0.77,0.47,1.1,0.98c0.33,0.51,0.47,1.01,0.47,1.39V13.43z M34.5,12.74
		c-0.11-0.59-0.35-1.08-0.8-1.45c-0.42-0.33-0.9-0.48-1.4-0.48c-0.48,0-0.93,0.16-1.35,0.49c-0.45,0.37-0.73,0.85-0.83,1.44H34.5z"
		/>
	<path class="st1" d="M41.47,13.08c0,0.83-0.29,1.53-0.86,2.1c-0.58,0.58-1.25,0.87-2.03,0.87c-0.88,0-1.61-0.35-2.19-1.06v4.97
		h-0.69v-9.85h0.69v1.06c0.63-0.7,1.36-1.06,2.19-1.06c0.8,0,1.48,0.29,2.05,0.88C41.18,11.58,41.47,12.28,41.47,13.08z
		 M40.81,13.08c0-0.61-0.21-1.14-0.64-1.6c-0.43-0.45-0.95-0.68-1.58-0.68c-0.58,0-1.1,0.22-1.55,0.66
		c-0.45,0.44-0.67,0.98-0.67,1.61c0,0.61,0.22,1.14,0.65,1.6c0.43,0.45,0.95,0.68,1.57,0.68c0.6,0,1.11-0.22,1.56-0.66
		C40.59,14.26,40.81,13.72,40.81,13.08z"/>
	<path class="st1" d="M44.48,16.06h-0.66V7.41h0.66V16.06z"/>
	<path class="st1" d="M51.15,17.27c0,0.1-0.05,0.32-0.16,0.66c-0.2,0.65-0.59,1.16-1.17,1.54c-0.49,0.33-1.01,0.5-1.57,0.5
		c-0.38,0-0.82-0.1-1.31-0.31c-0.4-0.18-0.76-0.53-1.09-1.06c-0.32-0.5-0.48-0.94-0.48-1.32v-0.28h0.66
		c0.02,0.68,0.27,1.24,0.74,1.68c0.43,0.4,0.93,0.59,1.49,0.59c0.52,0,1-0.18,1.43-0.54c0.49-0.41,0.76-0.94,0.8-1.58V15
		c-0.61,0.72-1.35,1.07-2.22,1.07c-0.71,0-1.36-0.26-1.95-0.79c-0.63-0.56-0.95-1.22-0.95-1.97v-3.19h0.66v3.2
		c0.01,0.22,0.12,0.52,0.33,0.91c0.21,0.39,0.51,0.69,0.9,0.91c0.29,0.17,0.62,0.25,0.99,0.25c0.26,0,0.59-0.08,1.01-0.25
		c0.3-0.11,0.58-0.38,0.85-0.81c0.25-0.4,0.37-0.74,0.38-1.02v-3.19h0.66V17.27z"/>
</g>
<g>
	<path class="st1" d="M52.39,8.64c0.15,0,0.3,0.04,0.45,0.12c0.14,0.08,0.26,0.2,0.34,0.35c0.08,0.15,0.12,0.31,0.12,0.47
		c0,0.16-0.04,0.32-0.12,0.46c-0.08,0.15-0.19,0.26-0.34,0.35c-0.14,0.08-0.29,0.12-0.45,0.12c-0.16,0-0.31-0.04-0.45-0.12
		c-0.14-0.08-0.26-0.2-0.34-0.35c-0.08-0.15-0.12-0.3-0.12-0.46c0-0.16,0.04-0.32,0.12-0.47c0.08-0.15,0.19-0.27,0.34-0.35
		C52.09,8.68,52.23,8.64,52.39,8.64z M52.39,8.79c-0.13,0-0.25,0.03-0.37,0.1c-0.12,0.07-0.21,0.16-0.28,0.29
		c-0.07,0.13-0.1,0.26-0.1,0.39c0,0.13,0.03,0.26,0.1,0.39c0.07,0.12,0.16,0.22,0.28,0.29c0.12,0.07,0.25,0.1,0.38,0.1
		c0.13,0,0.26-0.03,0.38-0.1c0.12-0.07,0.21-0.17,0.28-0.29c0.07-0.12,0.1-0.25,0.1-0.39c0-0.14-0.03-0.27-0.1-0.39
		c-0.07-0.13-0.16-0.22-0.28-0.29C52.64,8.83,52.51,8.79,52.39,8.79z M51.99,10.09V9.09h0.34c0.11,0,0.2,0.01,0.25,0.03
		c0.05,0.02,0.09,0.05,0.12,0.1c0.03,0.05,0.05,0.1,0.05,0.15c0,0.07-0.03,0.14-0.08,0.19c-0.05,0.05-0.12,0.09-0.2,0.09
		c0.03,0.01,0.06,0.03,0.08,0.05c0.04,0.04,0.09,0.11,0.14,0.2l0.12,0.2h-0.19l-0.09-0.16c-0.07-0.12-0.12-0.2-0.16-0.23
		c-0.03-0.02-0.07-0.03-0.13-0.03h-0.09v0.43H51.99z M52.15,9.53h0.19c0.09,0,0.15-0.01,0.19-0.04c0.03-0.03,0.05-0.07,0.05-0.11
		c0-0.03-0.01-0.06-0.02-0.08c-0.02-0.02-0.04-0.04-0.07-0.05c-0.03-0.01-0.08-0.02-0.16-0.02h-0.18V9.53z"/>
</g>
<g>
	<path class="st1" d="M42.96,16.06h-0.66l0-5.94h0.66V16.06z"/>
	<rect x="42.27" y="8.78" class="st0" width="0.68" height="0.68"/>
</g>
</svg>
